{
    "accessors" : [
        {
            "bufferView" : 0, 
            "componentType" : 5123, 
            "count" : 870, 
            "max" : [
                579
            ], 
            "min" : [
                0
            ], 
            "type" : "SCALAR"
        }, 
        {
            "bufferView" : 1, 
            "componentType" : 5126, 
            "count" : 580, 
            "max" : [
                1.5, 
                5.876707077026367, 
                1.5
            ], 
            "min" : [
                -1.5, 
                -7.3909759521484375e-06, 
                -1.4999998807907104
            ], 
            "type" : "VEC3"
        }, 
        {
            "bufferView" : 2, 
            "componentType" : 5126, 
            "count" : 580, 
            "max" : [
                0.9238795042037964, 
                0.9560644626617432, 
                0.991230845451355
            ], 
            "min" : [
                -0.9238795042037964, 
                -1.0, 
                -0.9478923678398132
            ], 
            "type" : "VEC3"
        }
    ], 
    "asset" : {
        "generator" : "Khronos Blender glTF 2.0 exporter", 
        "version" : "2.0"
    }, 
    "bufferViews" : [
        {
            "buffer" : 0, 
            "byteLength" : 1740, 
            "byteOffset" : 0, 
            "target" : 34963
        }, 
        {
            "buffer" : 0, 
            "byteLength" : 6960, 
            "byteOffset" : 1740, 
            "target" : 34962
        }, 
        {
            "buffer" : 0, 
            "byteLength" : 6960, 
            "byteOffset" : 8700, 
            "target" : 34962
        }
    ], 
    "buffers" : [
        {
            "byteLength" : 15660, 
            "uri" : "data:application/octet-stream;base64,"
        }
    ], 
    "materials" : [
        {
            "name" : "Material.001", 
            "pbrMetallicRoughness" : {
                "metallicFactor" : 0.0
            }
        }
    ], 
    "meshes" : [
        {
            "name" : "Cylinder", 
            "primitives" : [
                {
                    "attributes" : {
                        "NORMAL" : 2, 
                        "POSITION" : 1
                    }, 
                    "indices" : 0, 
                    "material" : 0
                }
            ]
        }
    ], 
    "nodes" : [
        {
            "mesh" : 0, 
            "name" : "LP Bishop", 
            "scale" : [
                0.2112286537885666, 
                0.2112286537885666, 
                0.2112286537885666
            ]
        }
    ], 
    "scene" : 0, 
    "scenes" : [
        {
            "name" : "Scene", 
            "nodes" : [
                0
            ]
        }
    ]
}
