{
    "accessors" : [
        {
            "bufferView" : 0, 
            "componentType" : 5123, 
            "count" : 1242, 
            "max" : [
                831
            ], 
            "min" : [
                0
            ], 
            "type" : "SCALAR"
        }, 
        {
            "bufferView" : 1, 
            "componentType" : 5126, 
            "count" : 832, 
            "max" : [
                1.5000001192092896, 
                5.8968186378479, 
                1.5000001192092896
            ], 
            "min" : [
                -1.5000001192092896, 
                -7.390976406895788e-06, 
                -1.4999998807907104
            ], 
            "type" : "VEC3"
        }, 
        {
            "bufferView" : 2, 
            "componentType" : 5126, 
            "count" : 832, 
            "max" : [
                0.9240344166755676, 
                0.9672958850860596, 
                0.9240341186523438
            ], 
            "min" : [
                -0.9240343570709229, 
                -1.0, 
                -0.924034059047699
            ], 
            "type" : "VEC3"
        }
    ], 
    "asset" : {
        "generator" : "Khronos Blender glTF 2.0 exporter", 
        "version" : "2.0"
    }, 
    "bufferViews" : [
        {
            "buffer" : 0, 
            "byteLength" : 2484, 
            "byteOffset" : 0, 
            "target" : 34963
        }, 
        {
            "buffer" : 0, 
            "byteLength" : 9984, 
            "byteOffset" : 2484, 
            "target" : 34962
        }, 
        {
            "buffer" : 0, 
            "byteLength" : 9984, 
            "byteOffset" : 12468, 
            "target" : 34962
        }
    ], 
    "buffers" : [
        {
            "byteLength" : 22452, 
            "uri" : "data:application/octet-stream;base64,"
        }
    ], 
    "materials" : [
        {
            "name" : "Material.001", 
            "pbrMetallicRoughness" : {
                "baseColorFactor" : [
                    0.027471849731681486, 
                    0.027471849731681486, 
                    0.027471849731681486, 
                    1.0
                ], 
                "metallicFactor" : 0.0
            }
        }
    ], 
    "meshes" : [
        {
            "name" : "Cylinder", 
            "primitives" : [
                {
                    "attributes" : {
                        "NORMAL" : 2, 
                        "POSITION" : 1
                    }, 
                    "indices" : 0, 
                    "material" : 0
                }
            ]
        }
    ], 
    "nodes" : [
        {
            "mesh" : 0, 
            "name" : "LP King", 
            "scale" : [
                0.24575789272785187, 
                0.24575789272785187, 
                0.24575789272785187
            ]
        }
    ], 
    "scene" : 0, 
    "scenes" : [
        {
            "name" : "Scene", 
            "nodes" : [
                0
            ]
        }
    ]
}
