{
    "accessors" : [
        {
            "bufferView" : 0, 
            "componentType" : 5123, 
            "count" : 1098, 
            "max" : [
                709
            ], 
            "min" : [
                0
            ], 
            "type" : "SCALAR"
        }, 
        {
            "bufferView" : 1, 
            "componentType" : 5126, 
            "count" : 710, 
            "max" : [
                1.5, 
                5.024901390075684, 
                1.5
            ], 
            "min" : [
                -1.5, 
                -2.6226043701171875e-06, 
                -1.5
            ], 
            "type" : "VEC3"
        }, 
        {
            "bufferView" : 2, 
            "componentType" : 5126, 
            "count" : 710, 
            "max" : [
                1.0, 
                0.9090548157691956, 
                0.9333170652389526
            ], 
            "min" : [
                -1.0, 
                -1.0, 
                -0.9747001528739929
            ], 
            "type" : "VEC3"
        }
    ], 
    "asset" : {
        "generator" : "Khronos Blender glTF 2.0 exporter", 
        "version" : "2.0"
    }, 
    "bufferViews" : [
        {
            "buffer" : 0, 
            "byteLength" : 2196, 
            "byteOffset" : 0, 
            "target" : 34963
        }, 
        {
            "buffer" : 0, 
            "byteLength" : 8520, 
            "byteOffset" : 2196, 
            "target" : 34962
        }, 
        {
            "buffer" : 0, 
            "byteLength" : 8520, 
            "byteOffset" : 10716, 
            "target" : 34962
        }
    ], 
    "buffers" : [
        {
            "byteLength" : 19236, 
            "uri" : "data:application/octet-stream;base64,"
        }
    ], 
    "materials" : [
        {
            "name" : "Material", 
            "pbrMetallicRoughness" : {
                "metallicFactor" : 0.0
            }
        }
    ], 
    "meshes" : [
        {
            "name" : "Cylinder", 
            "primitives" : [
                {
                    "attributes" : {
                        "NORMAL" : 2, 
                        "POSITION" : 1
                    }, 
                    "indices" : 0, 
                    "material" : 0
                }
            ]
        }
    ], 
    "nodes" : [
        {
            "mesh" : 0, 
            "name" : "Knight", 
            "rotation" : [
                0.0, 
                1.0, 
                -0.0, 
                -1.6292068494294654e-07
            ], 
            "scale" : [
                0.267994225025177, 
                0.267994225025177, 
                0.267994225025177
            ], 
            "translation" : [
                0.0, 
                0.04546571150422096, 
                -0.0
            ]
        }
    ], 
    "scene" : 0, 
    "scenes" : [
        {
            "name" : "Scene", 
            "nodes" : [
                0
            ]
        }
    ]
}
