{
    "accessors" : [
        {
            "bufferView" : 0, 
            "componentType" : 5123, 
            "count" : 1050, 
            "max" : [
                729
            ], 
            "min" : [
                0
            ], 
            "type" : "SCALAR"
        }, 
        {
            "bufferView" : 1, 
            "componentType" : 5126, 
            "count" : 730, 
            "max" : [
                1.5, 
                5.806174278259277, 
                1.5
            ], 
            "min" : [
                -1.5, 
                -7.3909759521484375e-06, 
                -1.4999998807907104
            ], 
            "type" : "VEC3"
        }, 
        {
            "bufferView" : 2, 
            "componentType" : 5126, 
            "count" : 730, 
            "max" : [
                0.9236599802970886, 
                0.9124870896339417, 
                0.9236598610877991
            ], 
            "min" : [
                -0.92365962266922, 
                -1.0, 
                -0.9236597418785095
            ], 
            "type" : "VEC3"
        }
    ], 
    "asset" : {
        "generator" : "Khronos Blender glTF 2.0 exporter", 
        "version" : "2.0"
    }, 
    "bufferViews" : [
        {
            "buffer" : 0, 
            "byteLength" : 2100, 
            "byteOffset" : 0, 
            "target" : 34963
        }, 
        {
            "buffer" : 0, 
            "byteLength" : 8760, 
            "byteOffset" : 2100, 
            "target" : 34962
        }, 
        {
            "buffer" : 0, 
            "byteLength" : 8760, 
            "byteOffset" : 10860, 
            "target" : 34962
        }
    ], 
    "buffers" : [
        {
            "byteLength" : 19620, 
            "uri" : "data:application/octet-stream;base64,"
        }
    ], 
    "materials" : [
        {
            "name" : "Material.001", 
            "pbrMetallicRoughness" : {
                "baseColorFactor" : [
                    0.027471849731681486, 
                    0.027471849731681486, 
                    0.027471849731681486, 
                    1.0
                ], 
                "metallicFactor" : 0.0
            }
        }
    ], 
    "meshes" : [
        {
            "name" : "Cylinder", 
            "primitives" : [
                {
                    "attributes" : {
                        "NORMAL" : 2, 
                        "POSITION" : 1
                    }, 
                    "indices" : 0, 
                    "material" : 0
                }
            ]
        }
    ], 
    "nodes" : [
        {
            "mesh" : 0, 
            "name" : "LP Queen", 
            "scale" : [
                0.24676519632339478, 
                0.24676519632339478, 
                0.24676519632339478
            ]
        }
    ], 
    "scene" : 0, 
    "scenes" : [
        {
            "name" : "Scene", 
            "nodes" : [
                0
            ]
        }
    ]
}
