{
    "accessors" : [
        {
            "bufferView" : 0, 
            "componentType" : 5123, 
            "count" : 612, 
            "max" : [
                399
            ], 
            "min" : [
                0
            ], 
            "type" : "SCALAR"
        }, 
        {
            "bufferView" : 1, 
            "componentType" : 5126, 
            "count" : 400, 
            "max" : [
                1.5, 
                4.6173505783081055, 
                1.5
            ], 
            "min" : [
                -1.5, 
                -1.0013580322265625e-05, 
                -1.5
            ], 
            "type" : "VEC3"
        }, 
        {
            "bufferView" : 2, 
            "componentType" : 5126, 
            "count" : 400, 
            "max" : [
                1.0, 
                1.0, 
                1.0
            ], 
            "min" : [
                -1.0, 
                -1.0, 
                -1.0
            ], 
            "type" : "VEC3"
        }
    ], 
    "asset" : {
        "generator" : "Khronos Blender glTF 2.0 exporter", 
        "version" : "2.0"
    }, 
    "bufferViews" : [
        {
            "buffer" : 0, 
            "byteLength" : 1224, 
            "byteOffset" : 0, 
            "target" : 34963
        }, 
        {
            "buffer" : 0, 
            "byteLength" : 4800, 
            "byteOffset" : 1224, 
            "target" : 34962
        }, 
        {
            "buffer" : 0, 
            "byteLength" : 4800, 
            "byteOffset" : 6024, 
            "target" : 34962
        }
    ], 
    "buffers" : [
        {
            "byteLength" : 10824, 
            "uri" : "data:application/octet-stream;base64,"
        }
    ], 
    "materials" : [
        {
            "name" : "Material", 
            "pbrMetallicRoughness" : {
                "baseColorFactor" : [
                    0.027471849731681486, 
                    0.027471849731681486, 
                    0.027471849731681486, 
                    1.0
                ], 
                "metallicFactor" : 0.0
            }
        }
    ], 
    "meshes" : [
        {
            "name" : "Cylinder", 
            "primitives" : [
                {
                    "attributes" : {
                        "NORMAL" : 2, 
                        "POSITION" : 1
                    }, 
                    "indices" : 0, 
                    "material" : 0
                }
            ]
        }
    ], 
    "nodes" : [
        {
            "mesh" : 0, 
            "name" : "LP Rook", 
            "scale" : [
                0.20386472344398499, 
                0.20386472344398499, 
                0.20386472344398499
            ], 
            "translation" : [
                0.0, 
                0.05267840623855591, 
                -0.0
            ]
        }
    ], 
    "scene" : 0, 
    "scenes" : [
        {
            "name" : "Scene", 
            "nodes" : [
                0
            ]
        }
    ]
}
